<svg width="50" height="45" viewBox="0 0 50 45" fill="none" xmlns="http://www.w3.org/2000/svg">
<path fill-rule="evenodd" clip-rule="evenodd" d="M38.2333 0C36.8526 0 35.7333 1.11929 35.7333 2.5V27.3C35.7333 28.6807 36.8526 29.8 38.2333 29.8H42.0667V35C42.0667 35.4142 42.4025 35.75 42.8167 35.75C43.2309 35.75 43.5667 35.4142 43.5667 35V29.8H47.4C48.7807 29.8 49.9 28.6807 49.9 27.3V2.5C49.9 1.11929 48.7807 0 47.4 0H38.2333ZM38.7333 26.8V3H46.9V26.8H38.7333ZM7.83333 1.5C7.83333 1.08579 7.49755 0.75 7.08333 0.75C6.66912 0.75 6.33333 1.08579 6.33333 1.5L6.33333 24.5667H2.5C1.11929 24.5667 0 25.686 0 27.0667V31.7667C0 33.1474 1.11929 34.2667 2.5 34.2667H6.33333L6.33333 39.4667C6.33333 39.8809 6.66912 40.2167 7.08333 40.2167C7.49755 40.2167 7.83333 39.8809 7.83333 39.4667L7.83333 34.2667H11.6667C13.0474 34.2667 14.1667 33.1474 14.1667 31.7667V27.0667C14.1667 25.686 13.0474 24.5667 11.6667 24.5667H7.83333L7.83333 1.5ZM25.7 10.4333C25.7 10.0191 25.3642 9.68333 24.95 9.68333C24.5358 9.68333 24.2 10.0191 24.2 10.4333V15.6333H20.3667C18.986 15.6333 17.8667 16.7526 17.8667 18.1333V36.2333C17.8667 37.614 18.986 38.7333 20.3667 38.7333H24.2V43.9333C24.2 44.3475 24.5358 44.6833 24.95 44.6833C25.3642 44.6833 25.7 44.3475 25.7 43.9333V38.7333H29.5333C30.914 38.7333 32.0333 37.614 32.0333 36.2333V18.1333C32.0333 16.7526 30.914 15.6333 29.5333 15.6333H25.7V10.4333ZM3 27.5667V31.2667H11.1667V27.5667H3ZM20.8667 35.7333V18.6333H29.0333V35.7333H20.8667Z" fill="url(#paint0_linear_140_1023)"/>
<defs>
<linearGradient id="paint0_linear_140_1023" x1="33.1355" y1="109.012" x2="51.8422" y2="-98.5372" gradientUnits="userSpaceOnUse">
<stop stop-color="#008752"/>
<stop offset="0.239583" stop-color="#11A86D"/>
<stop offset="0.776042" stop-color="#31CC8F"/>
<stop offset="1" stop-color="#24B57C"/>
</linearGradient>
</defs>
</svg>
