<svg width="37" height="44" viewBox="0 0 37 44" fill="none" xmlns="http://www.w3.org/2000/svg">
<path d="M10.25 6H10C7.19974 6 5.79961 6 4.73005 6.54497C3.78924 7.02433 3.02433 7.78924 2.54497 8.73005C2 9.79961 2 11.1997 2 14V34C2 36.8003 2 38.2004 2.54497 39.27C3.02433 40.2108 3.78924 40.9757 4.73005 41.455C5.79961 42 7.19974 42 10 42H27C29.8003 42 31.2004 42 32.27 41.455C33.2108 40.9757 33.9757 40.2108 34.455 39.27C35 38.2004 35 36.8003 35 34V14C35 11.1997 35 9.79961 34.455 8.73005C33.9757 7.78924 33.2108 7.02433 32.27 6.54497C31.2004 6 29.8003 6 27 6H26.75M10.25 6V6C10.25 3.79086 12.0409 2 14.25 2H22.75C24.9591 2 26.75 3.79086 26.75 6V6M10.25 6V6C10.25 8.76142 12.4886 11 15.25 11H21.75C24.5114 11 26.75 8.76142 26.75 6V6" stroke="url(#paint0_linear_140_1033)" stroke-width="3"/>
<defs>
<linearGradient id="paint0_linear_140_1033" x1="23.9132" y1="99.5862" x2="46.4302" y2="-84.9715" gradientUnits="userSpaceOnUse">
<stop stop-color="#008752"/>
<stop offset="0.239583" stop-color="#11A86D"/>
<stop offset="0.776042" stop-color="#31CC8F"/>
<stop offset="1" stop-color="#24B57C"/>
</linearGradient>
</defs>
</svg>
