<svg width="36" height="36" viewBox="0 0 36 36" fill="none" xmlns="http://www.w3.org/2000/svg">
<circle cx="18" cy="18" r="18" fill="#D9D9D9" fill-opacity="0.2"/>
<path d="M24.6899 11.3207C24.5917 11.2223 24.475 11.1442 24.3465 11.0909C24.2181 11.0376 24.0803 11.0102 23.9413 11.0102C23.8022 11.0102 23.6645 11.0376 23.536 11.0909C23.4076 11.1442 23.2909 11.2223 23.1926 11.3207L18 16.5027L12.8074 11.3101C12.7091 11.2118 12.5923 11.1338 12.4639 11.0806C12.3354 11.0274 12.1978 11 12.0587 11C11.9197 11 11.782 11.0274 11.6536 11.0806C11.5251 11.1338 11.4084 11.2118 11.3101 11.3101C11.2118 11.4084 11.1338 11.5251 11.0806 11.6536C11.0274 11.782 11 11.9197 11 12.0587C11 12.1978 11.0274 12.3354 11.0806 12.4639C11.1338 12.5923 11.2118 12.7091 11.3101 12.8074L16.5027 18L11.3101 23.1926C11.2118 23.291 11.1338 23.4077 11.0806 23.5361C11.0274 23.6646 11 23.8022 11 23.9413C11 24.0803 11.0274 24.218 11.0806 24.3464C11.1338 24.4749 11.2118 24.5916 11.3101 24.6899C11.4084 24.7882 11.5251 24.8662 11.6536 24.9194C11.782 24.9726 11.9197 25 12.0587 25C12.1978 25 12.3354 24.9726 12.4639 24.9194C12.5923 24.8662 12.7091 24.7882 12.8074 24.6899L18 19.4973L23.1926 24.6899C23.291 24.7882 23.4077 24.8662 23.5361 24.9194C23.6646 24.9726 23.8022 25 23.9413 25C24.0803 25 24.218 24.9726 24.3464 24.9194C24.4749 24.8662 24.5916 24.7882 24.6899 24.6899C24.7882 24.5916 24.8662 24.4749 24.9194 24.3464C24.9726 24.218 25 24.0803 25 23.9413C25 23.8022 24.9726 23.6646 24.9194 23.5361C24.8662 23.4077 24.7882 23.291 24.6899 23.1926L19.4973 18L24.6899 12.8074C25.0934 12.4038 25.0934 11.7242 24.6899 11.3207Z" fill="#002F1C"/>
</svg>
