<svg width="18" height="22" viewBox="0 0 18 22" fill="none" xmlns="http://www.w3.org/2000/svg">
<path fill-rule="evenodd" clip-rule="evenodd" d="M9 2.00222C8.81833 2.00044 8.60466 2.00004 8.34903 2.00004H7.4C6.26339 2.00004 5.47108 2.00082 4.85424 2.05122C4.24907 2.10066 3.90138 2.19284 3.63803 2.32702C3.07354 2.61464 2.6146 3.07359 2.32698 3.63807C2.19279 3.90143 2.10062 4.24911 2.05118 4.85428C2.00078 5.47112 2 6.26344 2 7.40004V14.6C2 15.7366 2.00078 16.529 2.05118 17.1458C2.10062 17.751 2.19279 18.0987 2.32698 18.362C2.6146 18.9265 3.07354 19.3854 3.63803 19.6731C3.90138 19.8072 4.24907 19.8994 4.85424 19.9489C5.47108 19.9993 6.26339 20 7.4 20H10.6C11.7366 20 12.5289 19.9993 13.1458 19.9489C13.7509 19.8994 14.0986 19.8072 14.362 19.6731C14.9265 19.3854 15.3854 18.9265 15.673 18.362C15.8072 18.0987 15.8994 17.751 15.9488 17.1458C15.9992 16.529 16 15.7366 16 14.6V9.86756C16 9.48926 15.9991 9.2136 15.9937 9.00004H13.2H13.1615C12.6343 9.00006 12.1795 9.00008 11.805 8.96947C11.4096 8.93717 11.0164 8.86586 10.638 8.67306C10.0735 8.38544 9.6146 7.9265 9.32698 7.36201C9.13419 6.98363 9.06287 6.59042 9.03057 6.19507C8.99997 5.8205 8.99998 5.36574 9 4.83859L9 4.80004V2.00222ZM15.2467 7.00004C15.1134 6.83691 14.9383 6.63135 14.7 6.35328L13.2657 4.67999L12.1674 3.58167C11.5196 2.93386 11.2493 2.6708 11 2.50005V4.80004C11 5.3766 11.0008 5.74887 11.0239 6.03221C11.0461 6.30387 11.0838 6.40459 11.109 6.45403C11.2049 6.6422 11.3578 6.79518 11.546 6.89105C11.5955 6.91624 11.6962 6.95392 11.9678 6.97612C12.2512 6.99927 12.6234 7.00004 13.2 7.00004H15.2467ZM10.5104 0.138193C9.93307 -0.00040457 9.33173 -0.000230524 8.46298 2.10074e-05L8.34903 4.28227e-05H7.4L7.35719 4.25842e-05C6.27341 3.25707e-05 5.39926 2.45836e-05 4.69138 0.0578606C3.96253 0.11741 3.32234 0.243223 2.73005 0.54501C1.78924 1.02438 1.02434 1.78928 0.544968 2.73009C0.243181 3.32238 0.117368 3.96257 0.0578185 4.69142C-1.74063e-05 5.3993 -9.52194e-06 6.27345 2.53247e-07 7.35723V7.35724V7.40004V14.6V14.6428C-9.52191e-06 15.7266 -1.75089e-05 16.6008 0.0578185 17.3087C0.117368 18.0375 0.243181 18.6777 0.544968 19.27C1.02434 20.2108 1.78924 20.9757 2.73005 21.4551C3.32234 21.7569 3.96253 21.8827 4.69138 21.9422C5.39923 22.0001 6.27334 22.0001 7.35707 22H7.35717H7.4H10.6H10.6428H10.6429C11.7267 22.0001 12.6008 22.0001 13.3086 21.9422C14.0375 21.8827 14.6777 21.7569 15.27 21.4551C16.2108 20.9757 16.9757 20.2108 17.455 19.27C17.7568 18.6777 17.8826 18.0375 17.9422 17.3087C18 16.6008 18 15.7267 18 14.643V14.6429V14.6V9.86756L18 9.76588C18.0002 8.98713 18.0004 8.44793 17.8874 7.92479C17.7876 7.46223 17.6226 7.01619 17.3974 6.60001C17.1427 6.12932 16.7916 5.72003 16.2847 5.12889L16.2185 5.0517L14.7593 3.34925C14.7426 3.32982 14.7252 3.31103 14.7071 3.29294L13.5816 2.16745L13.5011 2.08685C12.8869 1.47238 12.4619 1.04705 11.9556 0.736842C11.5083 0.462698 11.0206 0.260677 10.5104 0.138193ZM6 11C5.44772 11 5 11.4478 5 12C5 12.5523 5.44772 13 6 13H12C12.5523 13 13 12.5523 13 12C13 11.4478 12.5523 11 12 11H6ZM5 16C5 15.4478 5.44772 15 6 15H10C10.5523 15 11 15.4478 11 16C11 16.5523 10.5523 17 10 17H6C5.44772 17 5 16.5523 5 16Z" fill="white"/>
</svg>
